<svg width="16" height="16" viewBox="0 0 16 16" fill="none" xmlns="http://www.w3.org/2000/svg">
<g clip-path="url(#clip0_1_405)">
<path d="M3.93894 7.62372C3.93894 9.65874 5.58869 11.3084 7.62366 11.3084C9.65862 11.3084 11.3084 9.65874 11.3084 7.62372C11.3084 5.58869 9.65868 3.939 7.62366 3.939C5.58863 3.939 3.93894 5.58872 3.93894 7.62372ZM7.62366 4.60718C9.28966 4.60718 10.6402 5.95774 10.6402 7.62372C10.6402 9.28969 9.28966 10.6403 7.62366 10.6403C5.95765 10.6403 4.60712 9.28969 4.60712 7.62372C4.60712 5.95774 5.95771 4.60718 7.62366 4.60718ZM5.44104 9.05093C5.7274 8.11712 6.59602 7.43808 7.62366 7.43808C8.65129 7.43808 9.51994 8.11712 9.8063 9.05093C9.34023 9.76127 8.53688 10.2304 7.62366 10.2304C6.71043 10.2304 5.90711 9.76127 5.44104 9.05093ZM6.61993 6.14746C6.61993 5.5931 7.06932 5.1437 7.62369 5.1437C8.17805 5.1437 8.62744 5.5931 8.62744 6.14746C8.62744 6.70182 8.17805 7.15125 7.62369 7.15125C7.06932 7.15125 6.61993 6.70182 6.61993 6.14746ZM1.52605 6.12316L1.15468 6.64509C1.58736 3.7798 3.82393 1.62194 6.5478 1.16879L6.54864 0.459103C6.54879 0.352435 6.66874 0.290644 6.75566 0.352495L8.88253 1.86577C8.95909 1.92023 8.95557 2.03414 8.8758 2.08381L6.74569 3.40974C6.65811 3.46427 6.54524 3.40152 6.54539 3.29834L6.54611 2.66301C4.65241 3.07452 3.10391 4.55515 2.66896 6.52282L2.43767 6.15127C2.23097 5.81924 1.75278 5.80447 1.52605 6.12316ZM14.8949 6.75572L13.3816 8.88259C13.3271 8.95915 13.2132 8.95563 13.1636 8.87586L11.8376 6.74575C11.7831 6.65814 11.8458 6.5453 11.949 6.54545L12.5844 6.54617C12.1729 4.65247 10.6922 3.10397 8.72455 2.66902L9.0961 2.43773C9.42813 2.23103 9.44287 1.75282 9.12421 1.52608L8.60228 1.15471C11.4676 1.58739 13.6254 3.82396 14.0786 6.54787L14.7883 6.5487C14.8949 6.54885 14.9567 6.6688 14.8949 6.75572ZM13.7213 9.12427L14.0927 8.60234C13.66 11.4677 11.4234 13.6255 8.6995 14.0786L8.69867 14.7883C8.69852 14.895 8.57857 14.9568 8.49165 14.8949L6.36478 13.3817C6.28822 13.3272 6.29177 13.2133 6.37151 13.1636L8.50163 11.8377C8.5892 11.7832 8.70207 11.8459 8.70192 11.9491L8.7012 12.5844C10.5949 12.1729 12.1434 10.6923 12.5783 8.72461L12.8096 9.09616C13.0163 9.42819 13.4946 9.44297 13.7213 9.12427ZM6.1231 13.7213L6.64503 14.0927C3.77971 13.66 1.62188 11.4234 1.16873 8.69954L0.459042 8.6987C0.352374 8.69855 0.290583 8.5786 0.352434 8.49168L1.86571 6.36482C1.92017 6.28825 2.03408 6.2918 2.08375 6.37155L3.40968 8.50166C3.4642 8.58924 3.40146 8.7021 3.29828 8.70195L2.66295 8.70123C3.07446 10.5949 4.55509 12.1434 6.52276 12.5784L6.15121 12.8097C5.81918 13.0164 5.80441 13.4946 6.1231 13.7213Z" fill="white"/>
</g>
<defs>
<clipPath id="clip0_1_405">
<rect width="15.2468" height="15.2468" fill="white"/>
</clipPath>
</defs>
</svg>
