<svg width="15" height="13" viewBox="0 0 15 13" fill="none" xmlns="http://www.w3.org/2000/svg">
<g clip-path="url(#clip0_1_367)">
<path d="M12.8718 5.03836H12.7868C12.6441 5.03798 12.5047 4.99546 12.3861 4.91613C12.2675 4.8368 12.175 4.7242 12.1202 4.59247V4.56719C12.0632 4.42999 12.0483 4.27895 12.0774 4.13326C12.1065 3.98757 12.1782 3.8538 12.2834 3.74896L12.3317 3.70069C12.3974 3.63648 12.4495 3.55979 12.4852 3.47513C12.5208 3.39046 12.5391 3.29954 12.5391 3.20769C12.5391 3.11583 12.5208 3.02491 12.4852 2.94025C12.4495 2.85558 12.3974 2.77889 12.3317 2.71468L11.1779 1.58387C11.1137 1.51819 11.037 1.46601 10.9523 1.43038C10.8677 1.39476 10.7767 1.37641 10.6849 1.37641C10.593 1.37641 10.5021 1.39476 10.4174 1.43038C10.3328 1.46601 10.2561 1.51819 10.1919 1.58387L10.1436 1.63213C10.0386 1.73712 9.90483 1.80865 9.75921 1.83769C9.61359 1.86674 9.46262 1.85199 9.32537 1.79532C9.18942 1.73835 9.0733 1.64254 8.99153 1.51989C8.90977 1.39724 8.86599 1.2532 8.86569 1.1058V1.02076C8.86569 0.837886 8.79305 0.662504 8.66374 0.533194C8.53443 0.403883 8.35904 0.331238 8.17617 0.331238H6.56729C6.38442 0.331238 6.20904 0.403883 6.07973 0.533194C5.95042 0.662504 5.87777 0.837886 5.87777 1.02076V1.1058C5.87785 1.24886 5.83554 1.38874 5.75618 1.50778C5.67682 1.62682 5.56397 1.71968 5.43188 1.77463L5.38821 1.79302C5.25607 1.84776 5.11066 1.86213 4.97036 1.83431C4.83005 1.80649 4.70113 1.73774 4.59986 1.63673L4.5401 1.57697C4.47589 1.5113 4.3992 1.45911 4.31454 1.42349C4.22987 1.38786 4.13895 1.36951 4.0471 1.36951C3.95524 1.36951 3.86432 1.38786 3.77966 1.42349C3.695 1.45911 3.61831 1.5113 3.55409 1.57697L2.42328 2.70778C2.3576 2.772 2.30542 2.84869 2.26979 2.93335C2.23417 3.01801 2.21582 3.10894 2.21582 3.20079C2.21582 3.29264 2.23417 3.38357 2.26979 3.46823C2.30542 3.55289 2.3576 3.62958 2.42328 3.6938L2.48304 3.75356C2.58405 3.85483 2.6528 3.98375 2.68062 4.12405C2.70843 4.26436 2.69406 4.40976 2.63933 4.54191V4.56719C2.58235 4.70314 2.48655 4.81926 2.3639 4.90103C2.24125 4.9828 2.09721 5.02657 1.94981 5.02687H1.83948C1.65661 5.02687 1.48123 5.09951 1.35192 5.22883C1.22261 5.35814 1.14996 5.53352 1.14996 5.71639V7.32527C1.14996 7.50814 1.22261 7.68352 1.35192 7.81283C1.48123 7.94214 1.65661 8.01479 1.83948 8.01479H1.92452C2.0672 8.01517 2.20658 8.05769 2.32517 8.13702C2.44375 8.21635 2.53626 8.32895 2.59106 8.46068V8.48596C2.64804 8.62316 2.66295 8.7742 2.63389 8.91989C2.60484 9.06558 2.53313 9.19935 2.42787 9.30419L2.37961 9.35246C2.31393 9.41667 2.26175 9.49337 2.22613 9.57803C2.1905 9.66269 2.17215 9.75361 2.17215 9.84547C2.17215 9.93732 2.1905 10.0282 2.22613 10.1129C2.26175 10.1976 2.31393 10.2743 2.37961 10.3385C2.42516 10.3911 2.48367 10.431 2.54935 10.4541C2.61503 10.4772 2.68561 10.4828 2.7541 10.4702C2.82259 10.4577 2.88663 10.4275 2.93986 10.3826C2.9931 10.3377 3.0337 10.2797 3.05764 10.2144C3.29315 9.61216 3.66255 9.07142 4.13788 8.63306C4.24395 8.53916 4.3177 8.4142 4.34865 8.27597C4.37959 8.13773 4.36616 7.99326 4.31026 7.8631C4.0988 7.38425 4.00502 6.86175 4.03675 6.33926C4.06297 5.45934 4.43765 4.62587 5.07838 4.02221C5.39564 3.7233 5.76866 3.48981 6.17616 3.33507C6.58365 3.18033 7.01763 3.10737 7.45333 3.12035C7.88902 3.13333 8.31789 3.23199 8.71545 3.41072C9.11301 3.58944 9.47147 3.84472 9.77038 4.16197C10.0693 4.47923 10.3028 4.85226 10.4575 5.25975C10.6122 5.66724 10.6852 6.10123 10.6722 6.53692C10.6725 6.99446 10.577 7.447 10.3918 7.86539C10.3375 7.99619 10.3259 8.14078 10.3585 8.27859C10.391 8.41641 10.4663 8.54045 10.5734 8.63306C11.0487 9.07142 11.4181 9.61216 11.6537 10.2144C11.6776 10.2767 11.7168 10.332 11.7677 10.3753C11.8185 10.4186 11.8794 10.4485 11.9448 10.4622C12.0102 10.4759 12.0779 10.473 12.1419 10.4538C12.2058 10.4346 12.264 10.3997 12.311 10.3523C12.3767 10.288 12.4289 10.2114 12.4645 10.1267C12.5001 10.042 12.5185 9.95111 12.5185 9.85926C12.5185 9.7674 12.5001 9.67648 12.4645 9.59182C12.4289 9.50716 12.3767 9.43047 12.311 9.36625L12.2627 9.31798C12.1575 9.21314 12.0858 9.07937 12.0567 8.93368C12.0277 8.78799 12.0426 8.63695 12.0995 8.49975C12.1568 8.36398 12.2526 8.24802 12.3752 8.16629C12.4978 8.08456 12.6417 8.04067 12.7891 8.04007H12.8718C13.0547 8.04007 13.2301 7.96743 13.3594 7.83812C13.4887 7.70881 13.5613 7.53342 13.5613 7.35055V5.74167C13.5632 5.64997 13.5467 5.55882 13.5128 5.47357C13.479 5.38831 13.4285 5.31066 13.3643 5.24517C13.3001 5.17967 13.2235 5.12765 13.1389 5.09214C13.0543 5.05662 12.9635 5.03834 12.8718 5.03836Z" fill="white"/>
<path d="M7.3543 12.512C7.60818 12.512 7.81398 12.3062 7.81398 12.0523C7.81398 11.7985 7.60818 11.5927 7.3543 11.5927C7.10043 11.5927 6.89462 11.7985 6.89462 12.0523C6.89462 12.3062 7.10043 12.512 7.3543 12.512Z" fill="white"/>
<path d="M8.46866 8.48066C8.32136 8.43651 8.19643 8.33788 8.1193 8.20486C8.50018 8.02954 8.80971 7.72931 8.99655 7.35395C9.1834 6.97858 9.23634 6.55064 9.1466 6.14106C9.05686 5.73148 8.82983 5.36487 8.50316 5.10202C8.17648 4.83917 7.76978 4.69586 7.35049 4.69586C6.93119 4.69586 6.52449 4.83917 6.19781 5.10202C5.87114 5.36487 5.64411 5.73148 5.55437 6.14106C5.46463 6.55064 5.51757 6.97858 5.70442 7.35395C5.89126 7.72931 6.20079 8.02954 6.58167 8.20486C6.50454 8.33788 6.37961 8.43651 6.23231 8.48066C4.74295 8.93115 3.67419 10.1953 3.67419 11.8478C3.68078 12.0872 3.78054 12.3146 3.95225 12.4816C4.12395 12.6486 4.35404 12.742 4.59355 12.7419H5.2509C5.30935 12.7419 5.36704 12.7286 5.41956 12.703C5.47208 12.6773 5.51806 12.64 5.55397 12.5939C5.58989 12.5478 5.6148 12.4941 5.6268 12.4369C5.63881 12.3797 5.63759 12.3205 5.62324 12.2638L5.44626 11.5605C5.42669 11.4826 5.42516 11.4012 5.44176 11.3226C5.45837 11.2439 5.49269 11.1701 5.5421 11.1068C5.59152 11.0434 5.65473 10.9921 5.72694 10.9568C5.79914 10.9216 5.87844 10.9032 5.9588 10.9032H8.74446C8.82483 10.9032 8.90413 10.9216 8.97633 10.9568C9.04854 10.9921 9.11175 11.0434 9.16117 11.1068C9.21058 11.1701 9.2449 11.2439 9.26151 11.3226C9.27811 11.4012 9.27657 11.4826 9.25701 11.5605L9.08003 12.2638C9.06568 12.3205 9.06446 12.3797 9.07646 12.4369C9.08847 12.4941 9.11338 12.5478 9.14929 12.5939C9.18521 12.64 9.23118 12.6773 9.28371 12.703C9.33623 12.7286 9.39392 12.7419 9.45237 12.7419H10.1097C10.3492 12.742 10.5793 12.6486 10.751 12.4816C10.9227 12.3146 11.0225 12.0872 11.0291 11.8478C11.0291 10.1953 9.96032 8.93115 8.46866 8.48066Z" fill="white"/>
</g>
<defs>
<clipPath id="clip0_1_367">
<rect width="14.7098" height="12.9446" fill="white"/>
</clipPath>
</defs>
</svg>
