<svg width="18" height="18" viewBox="0 0 18 18" fill="none" xmlns="http://www.w3.org/2000/svg">
<g clip-path="url(#clip0_1_393)">
<path d="M9.04292 6.72936C8.25684 6.84048 7.57025 7.57847 7.56362 7.5851C7.55375 7.59533 7.5426 7.60425 7.53045 7.61164C6.46244 8.30485 5.86043 7.77748 5.83556 7.74597C5.15229 7.1307 5.77917 6.09917 5.80571 6.05605C6.08558 5.59086 6.4245 5.16387 6.81402 4.78571H3.91346L2.65472 8.93837C2.66824 8.94586 2.68055 8.95537 2.69121 8.96656C4.64482 11.1756 7.23857 13.1358 8.26181 13.8755C8.3683 13.9542 8.50073 13.9896 8.63229 13.9744C8.76386 13.9592 8.88476 13.8946 8.97051 13.7937C9.05627 13.6928 9.10049 13.563 9.09423 13.4307C9.08797 13.2984 9.03169 13.1735 8.93679 13.0811L7.52879 11.6731C7.49791 11.642 7.48057 11.6 7.48057 11.5562C7.48057 11.5124 7.49791 11.4703 7.52879 11.4393C7.54421 11.4237 7.56255 11.4114 7.58276 11.403C7.60297 11.3945 7.62465 11.3902 7.64654 11.3902C7.66843 11.3902 7.69011 11.3945 7.71032 11.403C7.73053 11.4114 7.74887 11.4237 7.76429 11.4393L8.51389 12.1889L9.17726 12.8522L9.50894 13.1922C9.62792 13.3081 9.78757 13.3728 9.95366 13.3723C10.1198 13.3719 10.2791 13.3065 10.3975 13.19C10.5159 13.0736 10.584 12.9153 10.5872 12.7493C10.5903 12.5832 10.5283 12.4225 10.4144 12.3016L9.12253 10.9533L8.87708 10.6996C8.86154 10.6842 8.8492 10.6658 8.84078 10.6456C8.83236 10.6254 8.82803 10.6037 8.82803 10.5819C8.82803 10.56 8.83236 10.5383 8.84078 10.5181C8.8492 10.4979 8.86154 10.4795 8.87708 10.4641C8.8925 10.4486 8.91084 10.4362 8.93105 10.4278C8.95126 10.4194 8.97294 10.4151 8.99483 10.4151C9.01672 10.4151 9.0384 10.4194 9.05861 10.4278C9.07882 10.4362 9.09716 10.4486 9.11258 10.4641L10.9982 12.421C11.0895 12.5114 11.2051 12.5733 11.3309 12.5992C11.4567 12.6252 11.5874 12.614 11.707 12.5671C11.8266 12.5202 11.93 12.4396 12.0046 12.3351C12.0793 12.2306 12.122 12.1066 12.1276 11.9782C12.1303 11.8878 12.114 11.7978 12.0797 11.7141C12.0455 11.6304 11.9939 11.5548 11.9286 11.4923L10.7975 10.3978L10.0098 9.63324C9.99224 9.61861 9.97792 9.60052 9.9677 9.58009C9.95748 9.55967 9.95159 9.53735 9.9504 9.51454C9.94921 9.49174 9.95275 9.46893 9.96078 9.44755C9.96882 9.42617 9.98118 9.40668 9.9971 9.39031C10.013 9.37393 10.0321 9.36102 10.0533 9.35238C10.0744 9.34374 10.0971 9.33956 10.12 9.34011C10.1428 9.34065 10.1653 9.3459 10.186 9.35554C10.2067 9.36517 10.2252 9.37897 10.2403 9.39609L12.4792 11.5636C12.5379 11.6239 12.6082 11.6717 12.6859 11.7041C12.7636 11.7366 12.847 11.7529 12.9312 11.7522C13.0153 11.7515 13.0985 11.7337 13.1756 11.7C13.2527 11.6663 13.3222 11.6174 13.3799 11.5561C13.4376 11.4948 13.4823 11.4225 13.5113 11.3435C13.5403 11.2644 13.553 11.1804 13.5487 11.0963C13.5443 11.0123 13.523 10.93 13.4859 10.8544C13.4489 10.7788 13.397 10.7115 13.3332 10.6565L9.04292 6.72936Z" fill="white"/>
<path d="M3.40799 3.81387C2.54704 3.4268 1.60825 3.24404 0.664978 3.27986V9.78415H1.67827C1.78641 9.78441 1.8917 9.74942 1.97818 9.68448C2.06466 9.61955 2.12763 9.5282 2.15755 9.42427L3.67997 4.4109C3.71477 4.29532 3.70637 4.17104 3.65633 4.0612C3.60629 3.95137 3.51803 3.86346 3.40799 3.81387Z" fill="white"/>
<path d="M9.58119 4.13603C9.22355 3.98881 8.82392 3.97994 8.4601 4.11116C7.82493 4.34333 6.89788 4.90056 6.0836 6.2306C6.0836 6.24056 5.57447 7.05981 6.05375 7.50095C6.07033 7.51587 6.4982 7.87409 7.32741 7.34506C7.44681 7.22068 8.19475 6.47107 9.07869 6.38981C9.10154 6.3879 9.12453 6.39074 9.14623 6.39816C9.16792 6.40558 9.18784 6.41742 9.20473 6.43293L13.5514 10.4131C13.5713 10.4314 13.5896 10.4513 13.6078 10.4712C14.1053 10.3949 14.437 9.94047 14.5332 9.77463L12.9577 5.481L9.58119 4.13603Z" fill="white"/>
<path d="M16.2518 4.07169C15.3059 4.06541 14.3677 4.24224 13.4889 4.59244C13.3707 4.64308 13.2768 4.73751 13.2267 4.85592C13.1766 4.97433 13.1743 5.10754 13.2203 5.22761L15.0661 10.2509C15.1021 10.3478 15.1668 10.4315 15.2515 10.4907C15.3362 10.55 15.437 10.582 15.5404 10.5826H16.5835V4.07999C16.5006 4.07501 16.3862 4.07169 16.2518 4.07169Z" fill="white"/>
</g>
<defs>
<clipPath id="clip0_1_393">
<rect width="17.2475" height="17.2475" fill="white"/>
</clipPath>
</defs>
</svg>
