<svg width="13" height="13" viewBox="0 0 13 13" fill="none" xmlns="http://www.w3.org/2000/svg">
<g clip-path="url(#clip0_1_378)">
<path d="M5.56715 3.96495L6.47367 3.58911L7.38022 3.96495C7.50168 4.0151 7.64117 3.99924 7.74841 3.92146C7.85512 3.8438 7.91379 3.7161 7.90342 3.58458L7.82629 2.60629L8.46379 1.85994C8.54951 1.75977 8.57682 1.62193 8.53611 1.49648C8.4954 1.37078 8.39222 1.27542 8.26376 1.24482L7.30967 1.01567L6.7971 0.178759C6.66065 -0.059599 6.28668 -0.0595738 6.15025 0.178759L5.63768 1.01567L4.68359 1.24482C4.55513 1.27542 4.45195 1.37078 4.41124 1.49648C4.37053 1.62193 4.39784 1.75977 4.48356 1.85994L5.12106 2.60629L5.04393 3.58458C5.03356 3.7161 5.09223 3.84383 5.19894 3.92146C5.30593 3.99884 5.44527 4.01553 5.56715 3.96495Z" fill="white"/>
<path d="M12.9288 2.98867C12.8881 2.86297 12.7849 2.76761 12.6565 2.73701L11.7024 2.50786L11.1898 1.67095C11.1208 1.5584 10.9984 1.48987 10.8664 1.48987C10.7344 1.48987 10.612 1.55842 10.543 1.67095L10.0304 2.50786L9.07629 2.73701C8.94783 2.76761 8.84465 2.86297 8.80394 2.98867C8.76323 3.11412 8.79054 3.25196 8.87626 3.35213L9.51376 4.09848L9.43663 5.07677C9.42626 5.20829 9.48493 5.33602 9.59164 5.41365C9.69861 5.49105 9.83794 5.50774 9.95982 5.45714L10.8664 5.0813L11.7729 5.45714C11.8944 5.50729 12.0339 5.49143 12.1411 5.41365C12.2478 5.33599 12.3065 5.20829 12.2961 5.07677L12.219 4.09848L12.8565 3.35213C12.9422 3.25196 12.9695 3.11412 12.9288 2.98867Z" fill="white"/>
<path d="M3.13261 5.48603C3.21151 5.48603 3.28965 5.4615 3.35565 5.41371C3.46236 5.33605 3.52103 5.20835 3.51066 5.07683L3.43353 4.09854L4.07102 3.35219C4.15675 3.25203 4.18406 3.11418 4.14335 2.98873C4.10263 2.86303 3.99946 2.76767 3.871 2.73707L2.91691 2.50792L2.40434 1.67101C2.3353 1.55846 2.21291 1.48993 2.08091 1.48993C1.94891 1.48993 1.82652 1.55848 1.75749 1.67101L1.24491 2.50792L0.290825 2.73707C0.162365 2.76767 0.0591928 2.86303 0.0184803 2.98873C-0.0222323 3.11418 0.00507799 3.25203 0.090802 3.35219L0.728295 4.09854L0.651169 5.07683C0.640801 5.20835 0.699468 5.33608 0.80618 5.41371C0.913145 5.49112 1.05248 5.50781 1.17436 5.45721L2.08091 5.08136L2.98746 5.45721C3.03425 5.47642 3.08356 5.48603 3.13261 5.48603Z" fill="white"/>
<path d="M10.9395 9.1242L10.4906 11.6967C10.3778 12.3407 9.81873 12.8106 9.16505 12.8106H6.57639C6.39559 12.8106 6.21832 12.7744 6.05421 12.7069C5.89009 12.6386 5.73913 12.539 5.61143 12.411C5.60359 12.4032 5.59549 12.3954 5.5874 12.3875V8.11448L5.6046 8.10841C5.96949 7.97742 6.25398 7.6851 6.37434 7.31641L6.60067 6.59219L6.90563 5.61635C6.9954 5.34198 7.29025 5.19253 7.56487 5.2823C8.06758 5.44616 8.38721 5.91347 8.38721 6.41492C8.38721 6.53782 8.368 6.66274 8.32754 6.78563L7.98767 7.9008H9.91128C10.5596 7.9008 11.0512 8.4857 10.9395 9.1242Z" fill="white"/>
<path d="M4.45053 12.9473H2.6947C2.48641 12.9473 2.31757 12.7785 2.31757 12.5702V8.02289C2.31757 7.8146 2.48641 7.64575 2.6947 7.64575H4.45053C4.65882 7.64575 4.82766 7.8146 4.82766 8.02289V12.5702C4.82766 12.7785 4.65882 12.9473 4.45053 12.9473Z" fill="white"/>
</g>
<defs>
<clipPath id="clip0_1_378">
<rect width="12.9471" height="12.9471" fill="white"/>
</clipPath>
</defs>
</svg>
