<svg width="114" height="114" viewBox="0 0 114 114" fill="none" xmlns="http://www.w3.org/2000/svg">
<g id="Group 144">
<g id="Rectangle 36" filter="url(#filter0_d_1_420)">
<rect x="25" y="15" width="64" height="64" rx="15" fill="white"/>
</g>
<g id="growth (1) 1" clip-path="url(#clip0_1_420)">
<path id="Vector" fill-rule="evenodd" clip-rule="evenodd" d="M51.9926 64.3894C52.1416 64.3893 52.2845 64.33 52.3898 64.2245C52.4952 64.119 52.5543 63.976 52.5541 63.8269V50.3049C52.5542 50.2311 52.5397 50.158 52.5115 50.0898C52.4834 50.0216 52.442 49.9596 52.3899 49.9074C52.3377 49.8551 52.2758 49.8137 52.2076 49.7854C52.1394 49.7571 52.0664 49.7425 51.9926 49.7424H47.0555C46.9816 49.7423 46.9084 49.7568 46.8401 49.785C46.7718 49.8132 46.7097 49.8547 46.6575 49.9069C46.6052 49.9592 46.5638 50.0212 46.5356 50.0895C46.5073 50.1578 46.4929 50.231 46.493 50.3049V63.8269C46.4929 63.9008 46.5074 63.974 46.5356 64.0423C46.5638 64.1106 46.6052 64.1726 46.6575 64.2249C46.7098 64.2771 46.7718 64.3186 46.8401 64.3468C46.9084 64.375 46.9816 64.3895 47.0555 64.3894L51.9926 64.3894ZM60.0389 63.8269V45.2419C60.039 45.1681 60.0245 45.0949 59.9962 45.0266C59.968 44.9583 59.9266 44.8963 59.8743 44.844C59.8221 44.7918 59.76 44.7504 59.6918 44.7221C59.6235 44.6939 59.5503 44.6794 59.4764 44.6794H54.5398C54.466 44.6794 54.3928 44.6939 54.3245 44.7221C54.2562 44.7504 54.1942 44.7918 54.1419 44.844C54.0897 44.8963 54.0483 44.9583 54.02 45.0266C53.9918 45.0949 53.9773 45.1681 53.9773 45.2419V63.8269C53.9773 63.9008 53.9918 63.9739 54.02 64.0422C54.0483 64.1105 54.0897 64.1725 54.1419 64.2248C54.1942 64.277 54.2562 64.3185 54.3245 64.3467C54.3928 64.375 54.466 64.3895 54.5398 64.3894H59.4764C59.5503 64.3895 59.6235 64.375 59.6918 64.3467C59.76 64.3185 59.8221 64.277 59.8743 64.2248C59.9266 64.1725 59.968 64.1105 59.9962 64.0422C60.0245 63.9739 60.039 63.9008 60.0389 63.8269V63.8269ZM62.025 39.6261C61.9511 39.626 61.8779 39.6404 61.8096 39.6687C61.7413 39.6969 61.6793 39.7383 61.627 39.7906C61.5748 39.8428 61.5333 39.9049 61.5051 39.9732C61.4769 40.0415 61.4624 40.1147 61.4625 40.1886V63.8269C61.4624 63.9008 61.4769 63.974 61.5051 64.0423C61.5333 64.1106 61.5748 64.1726 61.627 64.2249C61.6793 64.2771 61.7413 64.3186 61.8096 64.3468C61.8779 64.375 61.9511 64.3895 62.025 64.3894H66.961C67.0348 64.3893 67.1079 64.3748 67.176 64.3465C67.2442 64.3182 67.3062 64.2767 67.3583 64.2245C67.4105 64.1723 67.4518 64.1103 67.48 64.042C67.5081 63.9738 67.5226 63.9007 67.5225 63.8269V40.1886C67.5226 40.1148 67.5081 40.0417 67.48 39.9734C67.4518 39.9052 67.4105 39.8432 67.3583 39.791C67.3062 39.7387 67.2442 39.6973 67.176 39.669C67.1079 39.6407 67.0348 39.6261 66.961 39.6261H62.025ZM74.4453 34.5679H69.5094C69.3602 34.5679 69.2171 34.6271 69.1116 34.7326C69.0061 34.8381 68.9469 34.9812 68.9469 35.1304V63.8269C68.9469 63.9761 69.0061 64.1191 69.1116 64.2246C69.2171 64.3301 69.3602 64.3894 69.5094 64.3894H74.4453C74.5192 64.3895 74.5924 64.375 74.6608 64.3467C74.7291 64.3185 74.7912 64.2771 74.8435 64.2248C74.8958 64.1726 74.9373 64.1106 74.9656 64.0423C74.9939 63.974 75.0084 63.9008 75.0084 63.8269V35.1304C75.0084 35.0565 74.9939 34.9833 74.9656 34.915C74.9373 34.8468 74.8958 34.7847 74.8435 34.7325C74.7912 34.6802 74.7291 34.6388 74.6608 34.6106C74.5924 34.5824 74.5192 34.5678 74.4453 34.5679ZM39.4591 53.0625C39.4111 53.0064 39.3745 52.9413 39.3516 52.871C39.3287 52.8007 39.3198 52.7266 39.3256 52.6529C39.3314 52.5792 39.3516 52.5073 39.3851 52.4414C39.4187 52.3755 39.4649 52.3169 39.5211 52.2689L45.7064 46.9797C45.8056 46.8878 45.9364 46.8375 46.0716 46.8391H49.5561L60.3329 36.8735C60.4374 36.7789 60.5737 36.7269 60.7147 36.7278H64.6241L70.614 30.7705H68.6986C68.5494 30.7705 68.4063 30.7112 68.3009 30.6058C68.1954 30.5003 68.1361 30.3572 68.1361 30.208C68.1361 30.0588 68.1954 29.9158 68.3009 29.8103C68.4063 29.7048 68.5494 29.6455 68.6986 29.6455H71.9773C72.0513 29.6454 72.1245 29.6598 72.1928 29.6881C72.2612 29.7163 72.3233 29.7577 72.3756 29.8099C72.4279 29.8622 72.4694 29.9242 72.4976 29.9926C72.5259 30.0609 72.5405 30.1341 72.5404 30.208V33.4829C72.5404 33.6322 72.4811 33.7753 72.3756 33.8809C72.27 33.9864 72.1269 34.0457 71.9776 34.0457C71.8283 34.0457 71.6852 33.9864 71.5796 33.8809C71.4741 33.7753 71.4148 33.6322 71.4148 33.4829V31.5591L65.252 37.6872C65.1473 37.7928 65.0049 37.8524 64.8562 37.8529H60.9346L50.1572 47.8185C50.0529 47.9132 49.9168 47.9652 49.776 47.9642H46.2799L40.2513 53.1229C40.1953 53.1709 40.1304 53.2075 40.0603 53.2305C39.9902 53.2534 39.9163 53.2624 39.8427 53.2568C39.7692 53.2512 39.6974 53.2311 39.6316 53.1978C39.5658 53.1645 39.5072 53.1185 39.4591 53.0625ZM45.8148 35.2962C45.8148 35.8688 46.2111 36.3561 46.7692 36.5569V34.0405C46.2111 34.2413 45.8148 34.7285 45.8148 35.2962ZM48.8477 39.1388C48.8477 38.5661 48.4529 38.0789 47.8943 37.878V40.3945C48.4529 40.1936 48.8477 39.7064 48.8477 39.1388ZM45.8148 39.1388C45.8148 38.9896 45.7555 38.8465 45.65 38.741C45.5445 38.6355 45.4015 38.5763 45.2523 38.5763C45.1031 38.5763 44.96 38.6355 44.8545 38.741C44.749 38.8465 44.6898 38.9896 44.6898 39.1388C44.6898 40.3242 45.5819 41.3184 46.7693 41.5599V42.2329C46.7693 42.3821 46.8286 42.5252 46.9341 42.6307C47.0396 42.7362 47.1826 42.7954 47.3318 42.7954C47.481 42.7954 47.6241 42.7362 47.7296 42.6307C47.8351 42.5252 47.8943 42.3821 47.8943 42.2329V41.5599C49.0808 41.3187 49.9728 40.3242 49.9728 39.1388C49.9728 37.9483 49.0808 36.9538 47.8943 36.713V34.0411C48.4529 34.242 48.8477 34.7292 48.8477 35.2968C48.8477 35.446 48.907 35.5891 49.0124 35.6946C49.1179 35.8 49.261 35.8593 49.4102 35.8593C49.5594 35.8593 49.7025 35.8 49.8079 35.6946C49.9134 35.5891 49.9727 35.446 49.9727 35.2968C49.9727 34.1114 49.0806 33.1171 47.8942 32.8757V32.202C47.8942 32.0528 47.8349 31.9097 47.7294 31.8043C47.6239 31.6988 47.4809 31.6395 47.3317 31.6395C47.1825 31.6395 47.0394 31.6988 46.9339 31.8043C46.8285 31.9097 46.7692 32.0528 46.7692 32.202V32.8751C45.582 33.1162 44.6896 34.1108 44.6896 35.2962C44.6896 36.4866 45.5817 37.4812 46.7692 37.722V40.3938C46.2111 40.1929 45.8148 39.7057 45.8148 39.138V39.1388ZM47.3318 44.5485C48.7816 44.5483 50.1987 44.1182 51.4041 43.3127C52.6095 42.5071 53.549 41.3622 54.1038 40.0228C54.6586 38.6833 54.8037 37.2095 54.521 35.7875C54.2382 34.3656 53.5401 33.0594 52.5151 32.0341C51.49 31.0089 50.184 30.3106 48.7621 30.0275C47.3402 29.7444 45.8663 29.8893 44.5267 30.4438C43.1872 30.9983 42.0421 31.9376 41.2363 33.1428C40.4305 34.348 40.0001 35.7651 39.9996 37.2149C40.0016 39.1591 40.7747 41.023 42.1493 42.3979C43.5238 43.7727 45.3876 44.5462 47.3318 44.5485ZM39.5703 64.3894H44.507C44.5809 64.3896 44.6541 64.3751 44.7225 64.3469C44.7908 64.3187 44.8529 64.2773 44.9052 64.225C44.9575 64.1728 44.999 64.1107 45.0273 64.0424C45.0555 63.9741 45.0701 63.9009 45.07 63.8269V55.3581C45.0701 55.2842 45.0555 55.2109 45.0273 55.1426C44.999 55.0743 44.9575 55.0123 44.9052 54.96C44.8529 54.9078 44.7908 54.8663 44.7225 54.8381C44.6541 54.8099 44.5809 54.7955 44.507 54.7956H39.5703C39.4211 54.7956 39.2781 54.8548 39.1726 54.9603C39.0671 55.0658 39.0078 55.2089 39.0078 55.3581V63.8269C39.0078 63.9761 39.0671 64.1191 39.1726 64.2246C39.2781 64.3301 39.4211 64.3894 39.5703 64.3894V64.3894Z" fill="url(#paint0_linear_1_420)"/>
</g>
</g>
<defs>
<filter id="filter0_d_1_420" x="0" y="0" width="114" height="114" filterUnits="userSpaceOnUse" color-interpolation-filters="sRGB">
<feFlood flood-opacity="0" result="BackgroundImageFix"/>
<feColorMatrix in="SourceAlpha" type="matrix" values="0 0 0 0 0 0 0 0 0 0 0 0 0 0 0 0 0 0 127 0" result="hardAlpha"/>
<feOffset dy="10"/>
<feGaussianBlur stdDeviation="12.5"/>
<feComposite in2="hardAlpha" operator="out"/>
<feColorMatrix type="matrix" values="0 0 0 0 0.00392157 0 0 0 0 0.0784314 0 0 0 0 0.211765 0 0 0 0.15 0"/>
<feBlend mode="normal" in2="BackgroundImageFix" result="effect1_dropShadow_1_420"/>
<feBlend mode="normal" in="SourceGraphic" in2="effect1_dropShadow_1_420" result="shape"/>
</filter>
<linearGradient id="paint0_linear_1_420" x1="75.0084" y1="29.6455" x2="40.2864" y2="65.6234" gradientUnits="userSpaceOnUse">
<stop stop-color="#03C3F9"/>
<stop offset="1" stop-color="#0F50BD"/>
</linearGradient>
<clipPath id="clip0_1_420">
<rect width="36" height="36" fill="white" transform="translate(39 29)"/>
</clipPath>
</defs>
</svg>
