<svg width="254" height="61" viewBox="0 0 254 61" fill="none" xmlns="http://www.w3.org/2000/svg">
<g clip-path="url(#clip0_1_971)">
<mask id="mask0_1_971" style="mask-type:luminance" maskUnits="userSpaceOnUse" x="0" y="0" width="254" height="61">
<path d="M253.762 0H0V60.6H253.762V0Z" fill="white"/>
</mask>
<g mask="url(#mask0_1_971)">
<path d="M13.4613 60.4759C12.9143 58.8699 26.5703 49.3923 26.5703 30.116C26.5703 10.8396 12.8078 1.93247 13.5436 0.110775C14.1148 -1.29864 32.9361 10.8492 32.9361 30.3796C32.9361 49.9101 13.9696 61.9476 13.4613 60.4759Z" fill="white"/>
<path d="M10.4178 23.7292C10.4178 26.2125 10.4178 26.1789 8.63633 26.1789H5.63015C4.24566 26.1789 4.24566 25.9153 4.25534 23.7341V19.8845C4.25534 17.2383 4.24566 17.2383 6.00774 17.2383H8.63147C10.4226 17.2383 10.4323 17.2383 10.4226 19.8749V23.7292H10.4178Z" fill="white"/>
<path d="M10.3357 37.548C10.3357 42.0112 6.49692 45.1225 4.2411 46.3497C3.20516 46.9154 0.470074 47.6009 0.0682827 47.2126C-0.6288 46.5223 4.2411 44.4465 4.2411 38.4349V34.6429C4.25078 32.2268 4.25078 32.3179 6.02738 32.3179H8.60272C10.4132 32.3179 10.3261 32.0878 10.3261 34.6381C10.3261 34.6381 10.3357 35.2134 10.3357 37.548Z" fill="white"/>
<path d="M47.1602 1.97461H51.4492V26.0689H47.1602V1.97461Z" fill="white"/>
<path d="M57.0586 1.83789H58.4092L73.4643 17.3606V1.97691H77.7534V26.239H76.6109L61.3475 11.1237V26.0664H57.0586V1.83789Z" fill="white"/>
<path d="M83.3594 1.83789H84.7095L99.7647 17.3606V1.97691H104.054V26.239H102.911L87.6478 11.1237V26.0664H83.3594V1.83789Z" fill="white"/>
<path d="M121.045 1.5625C128.587 1.5625 134.057 6.80703 134.057 14.0027C134.057 21.1984 128.485 26.443 121.045 26.443C113.604 26.443 108.066 21.1313 108.066 14.0027C108.066 6.87418 113.74 1.5625 121.045 1.5625ZM121.079 22.7085C125.784 22.7085 129.453 18.9741 129.453 14.0747C129.453 9.17528 125.958 5.40243 121.079 5.40243C116.199 5.40243 112.704 9.13692 112.704 14.0747C112.704 19.0124 116.373 22.7085 121.079 22.7085Z" fill="white"/>
<path d="M146.071 18.4226L153.545 1.97461H158.042L146.759 26.3757H145.306L134.027 1.97461H138.631L146.071 18.4226Z" fill="white"/>
<path d="M175.518 20.3116H163.89V26.069H159.562V12.3248C159.562 4.92304 163.3 1.5625 169.632 1.5625C175.964 1.5625 179.841 4.92304 179.841 12.3248V26.069H175.513V20.3116H175.518ZM163.886 16.951C166.03 16.9174 174.371 16.9174 175.513 16.9174V12.3584C175.513 7.21935 173.093 5.46955 169.699 5.46955C166.306 5.46955 163.886 7.45903 163.886 12.3248V16.951Z" fill="white"/>
<path d="M181.609 1.97461H202.062V5.88166H194.07V26.0689H189.743V5.88166H181.609V1.97461Z" fill="white"/>
<path d="M204.59 1.97461H208.879V26.0689H204.59V1.97461Z" fill="white"/>
<path d="M223.45 18.4226L230.924 1.97461H235.421L224.137 26.3757H222.685L211.406 1.97461H216.01L223.45 18.4226Z" fill="white"/>
<path d="M237.945 1.97461H253.761V5.88166H242.239V12.6315H252.691V16.3995H242.239V22.157H253.761V26.0641H237.945V1.97461Z" fill="white"/>
<path d="M47.1602 31.5048H56.3288C63.8711 31.5048 69.341 36.5432 69.341 43.5327C69.341 50.5223 63.7691 55.5943 56.3288 55.5943H47.1602V31.5V31.5048ZM51.4879 35.4119V51.692H56.3675C61.073 51.692 64.7423 48.2979 64.7423 43.6047C64.7423 38.9114 61.2473 35.4119 56.3675 35.4119H51.4879Z" fill="white"/>
<path d="M73.3945 31.5048H89.2092V35.4119H77.6879V42.1617H88.1395V45.9297H77.6879V51.6872H89.2092V55.5943H73.3945V31.5V31.5048Z" fill="white"/>
<path d="M93.8477 31.3739H95.1984L110.254 46.8967V31.5082H114.542V55.7702H113.4L98.1367 40.655V55.5976H93.8477V31.3691V31.3739Z" fill="white"/>
<path d="M117.066 31.5059H137.519V35.4129H129.527V55.6001H125.199V35.4129H117.066V31.5059Z" fill="white"/>
<path d="M155.268 49.8428H143.64V55.6003H139.312V41.8561C139.312 34.4543 143.05 31.0938 149.382 31.0938C155.714 31.0938 159.591 34.4543 159.591 41.8561V55.6003H155.263V49.8428H155.268ZM143.64 46.4871C145.785 46.4535 154.126 46.4535 155.268 46.4535V41.8944C155.268 36.7554 152.848 35.0056 149.455 35.0056C146.061 35.0056 143.64 36.995 143.64 41.8609V46.4871Z" fill="white"/>
<path d="M164.895 31.5059H169.185V51.6931H180.706V55.6001H164.891V31.5059H164.895Z" fill="white"/>
<path d="M184.676 55.5622C183.703 55.5622 182.909 54.7761 182.909 53.8125C182.909 52.8489 183.703 52.0627 184.676 52.0627C185.649 52.0627 186.443 52.8489 186.443 53.8125C186.443 54.7761 185.649 55.5622 184.676 55.5622ZM186.54 53.031C186.438 52.7913 186.292 52.5804 186.108 52.3934C185.925 52.2113 185.707 52.0675 185.465 51.9668C185.213 51.8613 184.952 51.8086 184.676 51.8086C184.4 51.8086 184.138 51.8613 183.887 51.9668C183.645 52.0675 183.432 52.2113 183.243 52.3934C183.059 52.5756 182.914 52.7913 182.812 53.031C182.706 53.2803 182.652 53.5392 182.652 53.8125C182.652 54.0857 182.706 54.3446 182.812 54.5939C182.914 54.8336 183.059 55.0445 183.243 55.2315C183.427 55.4136 183.645 55.5574 183.887 55.6581C184.138 55.7636 184.4 55.8163 184.676 55.8163C184.952 55.8163 185.213 55.7636 185.465 55.6581C185.707 55.5574 185.92 55.4136 186.108 55.2315C186.292 55.0493 186.438 54.8336 186.54 54.5939C186.646 54.3446 186.699 54.0857 186.699 53.8125C186.699 53.5392 186.646 53.2803 186.54 53.031Z" fill="white"/>
<path d="M185.048 53.5937C184.966 53.656 184.841 53.6848 184.675 53.6848H184.356V52.9896C184.429 52.9849 184.521 52.9801 184.627 52.9801C184.995 52.9801 185.17 53.0952 185.17 53.33C185.17 53.4499 185.131 53.5362 185.053 53.5937H185.048ZM185.435 54.1978C185.378 54.0635 185.3 53.958 185.204 53.8765C185.421 53.7567 185.537 53.5649 185.537 53.3157C185.537 53.1095 185.45 52.9417 185.286 52.8219C185.121 52.702 184.898 52.6445 184.623 52.6445C184.443 52.6445 184.235 52.6637 184.003 52.7068H183.969V54.9984H184.351V54.0204H184.685C184.966 54.0204 185.15 54.3368 185.227 54.96V54.9984H185.615V54.9504C185.557 54.61 185.499 54.3559 185.431 54.2026L185.435 54.1978Z" fill="white"/>
</g>
</g>
<defs>
<clipPath id="clip0_1_971">
<rect width="253.535" height="60.6544" fill="white"/>
</clipPath>
</defs>
</svg>
