<svg width="188" height="33" viewBox="0 0 188 33" fill="none" xmlns="http://www.w3.org/2000/svg">
<path d="M57.2167 28.405V30.694H46.9897V21.4015L45.7717 19.3435H57.1012V21.6115H49.7302V23.869H56.0197V26.158H49.7302V28.4155H57.2167V28.405Z" fill="white"/>
<path d="M121.34 28.405V30.694H111.113V21.4015L109.895 19.3435H121.225V21.6115H113.854V23.869H120.143V26.158H113.854V28.4155H121.34V28.405Z" fill="white"/>
<path d="M86.3122 24.2575V30.694H80.6527C76.7992 30.6625 74.8672 27.838 74.8672 25.024C74.8672 22.21 75.4552 21.9265 76.5997 20.845L75.7282 19.354H86.1022V21.622H80.7367C78.7312 21.622 77.7022 23.323 77.7022 25.024C77.7022 26.725 78.6892 28.3945 80.6737 28.426H83.7187V26.158H81.0307V24.2575H86.3122Z" fill="white"/>
<path d="M88.2968 19.3435H92.2553V30.694H89.5148V21.4015L88.2968 19.3435Z" fill="white"/>
<path d="M59.2117 19.3435H63.1702L70.1423 27.2395V19.3435H72.8827V30.694H70.1423L63.1702 22.7875V30.694H60.4298V21.4015L59.2117 19.3435Z" fill="white"/>
<path d="M94.2397 19.3435H98.1983L105.17 27.2395V19.3435H107.911V30.694H105.17L98.1983 22.7875V30.694H95.4578V21.4015L94.2397 19.3435Z" fill="white"/>
<path d="M147.475 1.01049H151.79L157.229 12.4345H154.352L153.565 10.7965H147.254L146.467 12.4345H143.59L148.336 2.47L147.485 1.01049H147.475ZM148.346 8.51799H152.462L150.404 4.2235L148.346 8.51799Z" fill="white"/>
<path d="M94.2397 1.084H98.1667V12.3505H95.4472V3.1315L94.2397 1.084Z" fill="white"/>
<path d="M141.605 10.0825V12.3505H131.672V3.1315L130.465 1.084H134.392V10.0825H141.605Z" fill="white"/>
<path d="M100.141 1.084H104.068L108.425 8.686L112.783 1.084H115.502V12.3505H112.783V5.6515L108.919 12.3505H107.9L104.057 5.6515V12.3505H101.338V3.1315L100.13 1.084H100.141Z" fill="white"/>
<path d="M159.203 1.084H163.13L170.05 8.9275V1.084H172.769V12.3505H170.05L163.13 4.4965V12.3505H160.411V3.1315L159.203 1.084Z" fill="white"/>
<path d="M117.487 1.084H124.795C127.262 1.084 128.501 2.9215 128.501 4.7485C128.501 6.5755 127.262 8.41299 124.795 8.41299H121.414V12.34H118.694V3.121L117.487 1.0735V1.084ZM121.414 6.15549H124.501C125.404 6.15549 125.855 5.46249 125.855 4.759C125.855 4.0555 125.404 3.3625 124.501 3.3625H121.414V6.166V6.15549Z" fill="white"/>
<path d="M187.753 1.084V3.32049H182.828V12.3505H180.109V3.32049H176.066L174.743 1.084H187.753Z" fill="white"/>
<path d="M86.8582 10.009V12.277H76.6942V3.0475L75.4867 1H86.7532V3.2575H79.4242V5.494H85.6717V7.762H79.4242V9.9985H86.8687L86.8582 10.009Z" fill="white"/>
<path d="M60.6503 1.01049H64.5773V5.5045H70.7933V1.01049H73.5023V12.2875H70.7933V7.7725H64.5773V12.2875H61.8578V3.05799L60.6503 1.01049Z" fill="white"/>
<path d="M58.6763 1.01049V3.247H53.7413V12.2875H51.0217V3.247H46.9792L45.6562 1.01049H58.6763Z" fill="white"/>
<path d="M8.86667 9.1035C8.69867 9.1035 8.53067 9.14551 8.37317 9.24001C7.90067 9.51301 7.74317 10.1115 8.01617 10.584C8.28917 11.0565 8.88766 11.214 9.36016 10.941C9.83266 10.668 9.99017 10.0695 9.71717 9.597C9.53867 9.282 9.20267 9.1035 8.86667 9.1035Z" fill="white"/>
<path d="M20.7422 14.1645C20.3852 14.238 20.0282 14.3115 19.6712 14.3535C18.9257 14.469 18.0437 14.427 17.4137 13.9335C17.1512 13.755 16.9202 13.587 16.6892 13.4505C16.4162 13.4505 16.1432 13.503 15.8597 13.566C15.2927 13.7025 14.7467 13.9335 14.2217 14.196C14.2112 14.196 14.1797 14.217 14.1377 14.238C13.9487 14.343 13.5392 14.658 13.7597 15.267C13.9592 15.6135 14.0852 15.8235 14.1587 15.96L14.1902 16.023C14.2637 16.149 14.2847 16.1805 14.2847 16.191L16.6997 20.3805C16.9622 20.832 17.3297 21.2205 17.7602 21.5145L16.8887 21.651C15.8072 21.819 14.8727 22.449 14.3267 23.394C14.2742 22.911 14.1167 22.4385 13.8752 22.0185L9.66467 14.7315C10.5467 14.0805 11.4917 13.5345 12.4997 13.0935C13.1822 12.8415 13.8752 12.6525 14.5997 12.5265C15.3557 12.4005 16.1222 12.3375 16.8887 12.5055L17.0462 12.537L17.0987 12.5895C17.7917 13.209 18.0017 13.629 18.5057 13.8705C18.4637 13.8705 18.4112 13.8915 18.3692 13.902C18.4427 13.902 18.5057 13.902 18.5792 13.902C18.8417 14.007 19.1777 14.0805 19.6712 14.1225C20.0282 14.154 20.3852 14.1645 20.7527 14.175L20.7422 14.1645Z" fill="white"/>
<path d="M10.2527 1.3545L0.624168 6.9195L0.130666 6.069C0.00466619 5.838 -0.0373332 5.5755 0.0361668 5.3235C0.109667 5.0715 0.267166 4.8615 0.498166 4.725L8.42567 0.146997C8.58317 0.0629974 8.75117 0.0209961 8.91917 0.0209961C9.08717 0.0209961 9.08717 0.0315012 9.17117 0.0525012C9.42317 0.126001 9.63317 0.283497 9.76967 0.514497L10.2632 1.365L10.2527 1.3545Z" fill="white"/>
<path d="M11.5547 3.612L1.92617 9.177L0.949669 7.4865L10.5782 1.9215L11.5547 3.6225V3.612Z" fill="white"/>
<path d="M11.8907 4.179L2.25167 9.744L6.42017 16.968C8.78267 13.944 12.2477 11.9385 16.0592 11.403L11.8907 4.179ZM9.89567 11.3505C9.58067 11.6025 9.22367 11.718 8.86667 11.718C8.29967 11.718 7.75367 11.424 7.44917 10.899C6.99767 10.122 7.27067 9.114 8.04767 8.6625C8.88767 8.1795 9.97967 8.526 10.3682 9.4395C10.6517 10.101 10.4522 10.899 9.89567 11.3505Z" fill="white"/>
<path d="M27.9242 10.9305C28.3967 11.2035 28.9952 11.0355 29.2682 10.5735C29.5412 10.101 29.3732 9.50249 28.9112 9.22949C28.4387 8.95649 27.8402 9.1245 27.5672 9.5865C27.2942 10.059 27.4622 10.6575 27.9242 10.9305Z" fill="white"/>
<path d="M17.4557 29.064C18.5477 29.694 19.9547 29.316 20.5847 28.224C20.8892 27.699 20.9732 27.0795 20.8157 26.4915C20.6477 25.872 20.2382 25.3575 19.6712 25.053C18.6317 24.507 17.2982 24.864 16.6682 25.8615C15.9752 26.964 16.3427 28.413 17.4662 29.064H17.4557Z" fill="white"/>
<path d="M14.1902 24.906L12.5522 27.741L13.8122 28.4655C13.8857 28.5075 13.9382 28.5705 13.9592 28.644C14.3477 29.778 15.1247 30.723 16.1537 31.3215C17.1827 31.92 18.4007 32.109 19.5767 31.878C19.6502 31.857 19.7342 31.878 19.8077 31.92L21.0677 32.6445L22.7057 29.8095L20.9837 28.812C20.4167 29.5785 19.5242 30.009 18.6107 30.009C17.6972 30.009 17.6027 29.883 17.1407 29.61C15.8282 28.854 15.3347 27.237 15.9227 25.8825L14.1902 24.885V24.906Z" fill="white"/>
<path d="M23.5667 26.082C23.8922 26.922 23.8292 27.846 23.3777 28.623L23.0207 29.2425L21.2882 28.245C21.5612 27.636 21.6242 26.964 21.4457 26.313C21.2462 25.557 20.7527 24.9165 20.0702 24.528C18.7577 23.772 17.1197 24.15 16.2377 25.3365L14.5052 24.339L14.8622 23.7195C15.3137 22.9425 16.0802 22.4175 16.9727 22.281L18.0017 22.1235C19.0832 21.9555 20.0282 21.315 20.5742 20.37L23.1362 15.939C23.1362 15.9285 23.1992 15.8235 23.6612 15.0255C23.8607 14.448 23.4512 14.112 23.2727 14.007C23.2307 13.986 23.2097 13.965 23.1992 13.965C22.3802 13.524 21.4982 13.188 20.5952 13.146C20.2592 13.3245 19.9547 13.5345 19.5977 13.692C19.2722 13.8495 18.9152 13.902 18.5687 13.902C18.5477 13.8915 18.5162 13.881 18.4952 13.8705C18.8417 13.797 19.1777 13.671 19.4507 13.4505C19.7762 13.188 20.0597 12.873 20.3852 12.6C20.7842 12.495 21.1937 12.4635 21.6032 12.4635C22.7057 12.495 23.7557 12.7365 24.7952 13.104C25.8032 13.5345 26.7482 14.0805 27.6302 14.7315L23.4197 22.0185C22.8737 22.974 22.7792 24.108 23.1782 25.1265L23.5562 26.103L23.5667 26.082Z" fill="white"/>
<path d="M21.2357 11.403C25.0367 11.9385 28.5017 13.9335 30.8747 16.968L35.0432 9.744L25.4042 4.179L21.2357 11.403ZM27.0002 9.261C27.4517 8.484 28.4492 8.211 29.2367 8.6625C30.0137 9.114 30.2867 10.122 29.8352 10.899C29.5307 11.424 28.9847 11.718 28.4177 11.718C27.8507 11.718 27.8612 11.6445 27.5987 11.4975C26.8217 11.046 26.5487 10.038 27.0002 9.261Z" fill="white"/>
<path d="M26.7167 1.9215L36.3452 7.4865L35.3687 9.177L25.7402 3.612L26.7167 1.9215Z" fill="white"/>
<path d="M37.1642 6.0585L36.6707 6.909L27.0422 1.344L27.5357 0.493497C27.6617 0.262497 27.8717 0.105001 28.1342 0.031501C28.3862 -0.031499 28.6487 -2.85387e-06 28.8797 0.125997L36.8072 4.704C37.0382 4.83 37.1957 5.0505 37.2692 5.3025C37.3322 5.5545 37.3007 5.817 37.1747 6.048L37.1642 6.0585Z" fill="white"/>
<path d="M18.5687 13.8915C18.4952 13.8915 18.4322 13.8915 18.3587 13.8915C18.4007 13.8915 18.4532 13.8705 18.4952 13.86C18.5162 13.86 18.5477 13.881 18.5687 13.8915Z" fill="white"/>
<path d="M18.5687 13.8915C18.4952 13.8915 18.4322 13.8915 18.3587 13.8915C18.4007 13.8915 18.4532 13.8705 18.4952 13.86C18.5162 13.86 18.5477 13.881 18.5687 13.8915Z" fill="white"/>
</svg>
